<svg width="110" height="114" viewBox="0 0 110 114" fill="none" xmlns="http://www.w3.org/2000/svg">
<g clip-path="url(#clip0_449_2)">
<path fill-rule="evenodd" clip-rule="evenodd" d="M57.0716 56.9993C49.7081 62.8773 45 71.865 45 81.9375C45 99.6451 59.5507 114 77.5 114C95.4493 114 110 99.6451 110 81.9375C110 64.2299 95.4493 49.875 77.5 49.875C77.2756 49.875 77.0517 49.8772 76.8284 49.8817C73.4888 49.7592 70.2441 48.7253 67.4582 46.8889C64.4858 44.9295 62.1691 42.1446 60.801 38.8863C59.433 35.628 59.0751 32.0427 59.7725 28.5837C60.4699 25.1248 62.1914 21.9475 64.7192 19.4537C67.247 16.9599 70.4676 15.2617 73.9738 14.5736C77.48 13.8856 81.1142 14.2387 84.4169 15.5883C87.7197 16.938 90.5426 19.2235 92.5287 22.1558C94.5148 25.0882 95.5748 28.5358 95.5748 32.0625H110C110 27.1001 108.833 22.2249 106.614 17.8125C105.997 16.5864 105.299 15.3961 104.523 14.2495C100.952 8.97689 95.8758 4.86736 89.9372 2.44063C83.9986 0.0138922 77.464 -0.621052 71.1596 0.616086C64.8552 1.85322 59.0642 4.90688 54.519 9.3909C49.9738 13.8749 46.8785 19.5879 45.6245 25.8074C44.3705 32.0269 45.0141 38.4736 47.4739 44.3323C49.5568 49.293 52.8626 53.6435 57.0716 56.9993ZM95.5556 81.9375C95.5556 91.7751 87.4718 99.75 77.5 99.75C67.5282 99.75 59.4444 91.7751 59.4444 81.9375C59.4444 72.0999 67.5282 64.125 77.5 64.125C87.4718 64.125 95.5556 72.0999 95.5556 81.9375Z" fill="#ED1C24"/>
<path d="M0 88H35.8929C53.0729 88 67 74.1208 67 57C67 39.8792 53.0729 26 35.8929 26H0V41.5H35.8929C45.4643 41.5 50.25 49.8462 50.25 57C50.25 64.1571 45.4643 72.5 35.8929 72.5H0V88Z" fill="#005AAB"/>
<ellipse cx="33.5" cy="57" rx="9.5" ry="10" fill="#ED1C24"/>
<ellipse cx="77.5" cy="32" rx="10.5" ry="11" fill="#F58220"/>
<ellipse cx="77.5" cy="82" rx="10.5" ry="11" fill="#00A651"/>
</g>
<defs>
<clipPath id="clip0_449_2">
<rect width="110" height="114" fill="white"/>
</clipPath>
</defs>
</svg>
